<svg xmlns="http://www.w3.org/2000/svg" xmlns:xlink="http://www.w3.org/1999/xlink" width="500" zoomAndPan="magnify" viewBox="0 0 375 374.999991" height="500" preserveAspectRatio="xMidYMid meet" version="1.0"><defs><clipPath id="52d05d8cae"><path d="M 8.335938 82.136719 L 366.835938 82.136719 L 366.835938 203 L 8.335938 203 Z M 8.335938 82.136719 " clip-rule="nonzero"/></clipPath></defs><path fill="#3a51d6" d="M 337.1875 248.285156 C 337.1875 251.390625 339.128906 253.714844 341.453125 253.714844 L 344.167969 253.714844 C 346.496094 253.714844 348.433594 251.390625 348.433594 248.285156 L 348.433594 155.601562 L 337.1875 160.257812 Z M 337.1875 248.285156 " fill-opacity="1" fill-rule="nonzero"/><path fill="#3a51d6" d="M 80.46875 177.320312 C 80.46875 191.667969 80.46875 220.367188 80.46875 221.140625 C 80.46875 253.328125 128.167969 267.289062 187.113281 267.289062 C 246.058594 267.289062 293.757812 252.941406 293.757812 221.140625 C 293.757812 219.976562 293.757812 214.9375 293.757812 212.996094 L 293.757812 176.933594 L 187.113281 213.773438 Z M 80.46875 177.320312 " fill-opacity="1" fill-rule="nonzero"/><g clip-path="url(#52d05d8cae)"><path fill="#3a51d6" d="M 366.660156 136.988281 L 187.113281 202.914062 L 8.335938 137.765625 L 184.785156 82.308594 L 315.085938 121.476562 L 187.113281 121.476562 L 187.113281 130.785156 L 346.109375 130.785156 Z M 366.660156 136.988281 " fill-opacity="1" fill-rule="nonzero"/></g><path fill="#3a51d6" d="M 353.476562 247.898438 C 353.476562 248.613281 353.40625 249.316406 353.269531 250.015625 C 353.128906 250.714844 352.921875 251.394531 352.648438 252.054688 C 352.378906 252.714844 352.042969 253.339844 351.648438 253.929688 C 351.25 254.523438 350.800781 255.074219 350.296875 255.578125 C 349.792969 256.082031 349.242188 256.53125 348.652344 256.925781 C 348.058594 257.324219 347.433594 257.65625 346.773438 257.929688 C 346.113281 258.203125 345.4375 258.410156 344.738281 258.546875 C 344.039062 258.6875 343.332031 258.757812 342.617188 258.757812 C 341.90625 258.757812 341.199219 258.6875 340.5 258.546875 C 339.800781 258.410156 339.121094 258.203125 338.464844 257.929688 C 337.804688 257.65625 337.179688 257.324219 336.585938 256.925781 C 335.992188 256.53125 335.445312 256.082031 334.941406 255.578125 C 334.4375 255.074219 333.984375 254.523438 333.589844 253.929688 C 333.195312 253.339844 332.859375 252.714844 332.585938 252.054688 C 332.3125 251.394531 332.109375 250.714844 331.96875 250.015625 C 331.828125 249.316406 331.761719 248.613281 331.761719 247.898438 C 331.761719 247.1875 331.828125 246.480469 331.96875 245.78125 C 332.109375 245.082031 332.3125 244.402344 332.585938 243.742188 C 332.859375 243.085938 333.195312 242.460938 333.589844 241.867188 C 333.984375 241.273438 334.4375 240.726562 334.941406 240.222656 C 335.445312 239.714844 335.992188 239.265625 336.585938 238.871094 C 337.179688 238.472656 337.804688 238.140625 338.464844 237.867188 C 339.121094 237.59375 339.800781 237.386719 340.5 237.25 C 341.199219 237.109375 341.90625 237.039062 342.617188 237.039062 C 343.332031 237.039062 344.039062 237.109375 344.738281 237.25 C 345.4375 237.386719 346.113281 237.59375 346.773438 237.867188 C 347.433594 238.140625 348.058594 238.472656 348.652344 238.871094 C 349.242188 239.265625 349.792969 239.714844 350.296875 240.222656 C 350.800781 240.726562 351.25 241.273438 351.648438 241.867188 C 352.042969 242.460938 352.378906 243.085938 352.648438 243.742188 C 352.921875 244.402344 353.128906 245.082031 353.269531 245.78125 C 353.40625 246.480469 353.476562 247.1875 353.476562 247.898438 Z M 353.476562 247.898438 " fill-opacity="1" fill-rule="nonzero"/><path fill="#3a51d6" d="M 351.148438 315.761719 L 334.085938 315.761719 C 330.597656 315.761719 327.496094 313.4375 327.496094 310.722656 L 342.617188 247.511719 L 357.742188 310.722656 C 357.742188 313.824219 355.027344 315.761719 351.148438 315.761719 Z M 351.148438 315.761719 " fill-opacity="1" fill-rule="nonzero"/></svg>