<svg xmlns="http://www.w3.org/2000/svg" xmlns:xlink="http://www.w3.org/1999/xlink" width="500" zoomAndPan="magnify" viewBox="0 0 375 374.999991" height="500" preserveAspectRatio="xMidYMid meet" version="1.0"><defs><clipPath id="70dc8d3ca4"><path d="M 41.277344 66.164062 L 179 66.164062 L 179 222 L 41.277344 222 Z M 41.277344 66.164062 " clip-rule="nonzero"/></clipPath><clipPath id="868c8571a8"><path d="M 101 193 L 179 193 L 179 289.664062 L 101 289.664062 Z M 101 193 " clip-rule="nonzero"/></clipPath><clipPath id="3ad7bd2f51"><path d="M 221 134 L 358.527344 134 L 358.527344 289.664062 L 221 289.664062 Z M 221 134 " clip-rule="nonzero"/></clipPath><clipPath id="764372b367"><path d="M 221 66.164062 L 299 66.164062 L 299 163 L 221 163 Z M 221 66.164062 " clip-rule="nonzero"/></clipPath></defs><g clip-path="url(#70dc8d3ca4)"><path fill="#ffffff" d="M 41.277344 178.058594 L 178.148438 66.273438 L 178.148438 141.3125 L 121.554688 187.535156 L 102.917969 202.753906 C 97.847656 206.894531 94.941406 213.023438 94.941406 219.570312 C 94.941406 220.386719 94.984375 221.195312 95.074219 221.992188 Z M 41.277344 178.058594 " fill-opacity="1" fill-rule="nonzero"/></g><g clip-path="url(#868c8571a8)"><path fill="#ffffff" d="M 106.832031 231.59375 C 103.207031 228.632812 101.128906 224.253906 101.128906 219.570312 C 101.128906 214.890625 103.207031 210.507812 106.832031 207.546875 L 123.511719 193.925781 L 178.152344 238.554688 L 178.152344 289.84375 Z M 106.832031 231.59375 " fill-opacity="1" fill-rule="nonzero"/></g><g clip-path="url(#3ad7bd2f51)"><path fill="#3f7cd9" d="M 221.296875 214.804688 L 277.894531 168.582031 L 296.53125 153.359375 C 301.601562 149.222656 304.507812 143.09375 304.507812 136.546875 C 304.507812 135.730469 304.464844 134.921875 304.375 134.125 L 358.171875 178.058594 L 221.296875 289.84375 Z M 221.296875 214.804688 " fill-opacity="1" fill-rule="nonzero"/></g><g clip-path="url(#764372b367)"><path fill="#3a51d6" d="M 221.296875 117.5625 L 221.296875 66.273438 L 292.617188 124.523438 C 296.242188 127.480469 298.320312 131.863281 298.320312 136.546875 C 298.320312 141.226562 296.242188 145.609375 292.617188 148.566406 L 275.9375 162.1875 Z M 221.296875 117.5625 " fill-opacity="1" fill-rule="nonzero"/></g></svg>